<?xml version="1.0" standalone="no"?>
<!DOCTYPE svg PUBLIC "-//W3C//DTD SVG 20010904//EN"
 "http://www.w3.org/TR/2001/REC-SVG-20010904/DTD/svg10.dtd">
<svg version="1.0" xmlns="http://www.w3.org/2000/svg"
 width="96.000000pt" height="96.000000pt" viewBox="0 0 96.000000 96.000000"
 preserveAspectRatio="xMidYMid meet">

<g transform="translate(0.000000,96.000000) scale(0.100000,-0.100000)"
fill="#000000" stroke="none">
<path d="M435 951 c-45 -20 -70 -60 -70 -112 0 -42 5 -53 33 -81 28 -28 39
-33 82 -33 43 0 54 5 82 33 28 28 33 39 33 82 0 42 -5 54 -31 81 -33 33 -92
46 -129 30z"/>
<path d="M277 635 c-50 -34 -79 -63 -113 -114 -47 -70 -52 -96 -23 -114 26
-17 47 -1 89 66 22 35 51 69 65 75 l25 12 0 -80 0 -80 160 0 160 0 0 80 c0 44
3 80 8 80 16 -1 52 -38 86 -93 39 -62 59 -76 85 -60 29 18 24 44 -23 114 -34
51 -63 80 -113 114 l-68 45 -135 0 -135 0 -68 -45z"/>
<path d="M276 283 c-20 -25 -36 -52 -36 -60 0 -7 22 -58 50 -113 39 -78 56
-101 75 -106 34 -8 53 0 67 31 10 23 8 35 -20 91 -18 35 -32 69 -32 74 0 6 11
16 25 22 14 6 25 15 25 19 0 9 -99 89 -110 89 -4 0 -24 -21 -44 -47z"/>
<path d="M581 289 c-28 -22 -51 -44 -51 -48 0 -4 11 -13 25 -19 14 -6 25 -16
25 -22 0 -5 -15 -39 -32 -75 -31 -62 -32 -67 -17 -93 16 -29 37 -37 74 -28 18
5 36 29 69 97 26 50 46 101 46 113 0 22 -65 116 -80 116 -4 0 -30 -18 -59 -41z"/>
</g>
</svg>
