<?xml version="1.0" encoding="UTF-8" standalone="no"?>
<!-- Created with Inkscape (http://www.inkscape.org/) -->

<svg
   xmlns:dc="http://purl.org/dc/elements/1.1/"
   xmlns:cc="http://creativecommons.org/ns#"
   xmlns:rdf="http://www.w3.org/1999/02/22-rdf-syntax-ns#"
   xmlns:svg="http://www.w3.org/2000/svg"
   xmlns="http://www.w3.org/2000/svg"
   xmlns:sodipodi="http://sodipodi.sourceforge.net/DTD/sodipodi-0.dtd"
   xmlns:inkscape="http://www.inkscape.org/namespaces/inkscape"
   width="685.52679"
   height="730.88562"
   id="svg5788"
   version="1.1"
   inkscape:version="0.48.4 r9939"
   sodipodi:docname="New document 55">
  <defs
     id="defs5790" />
  <sodipodi:namedview
     id="base"
     pagecolor="#ffffff"
     bordercolor="#666666"
     borderopacity="1.0"
     inkscape:pageopacity="0.0"
     inkscape:pageshadow="2"
     inkscape:zoom="0.35"
     inkscape:cx="234.90625"
     inkscape:cy="371.15711"
     inkscape:document-units="px"
     inkscape:current-layer="layer1"
     showgrid="false"
     fit-margin-top="0"
     fit-margin-left="0"
     fit-margin-right="0"
     fit-margin-bottom="0"
     inkscape:window-width="515"
     inkscape:window-height="455"
     inkscape:window-x="763"
     inkscape:window-y="26"
     inkscape:window-maximized="0" />
  <metadata
     id="metadata5793">
    <rdf:RDF>
      <cc:Work
         rdf:about="">
        <dc:format>image/svg+xml</dc:format>
        <dc:type
           rdf:resource="http://purl.org/dc/dcmitype/StillImage" />
        <dc:title></dc:title>
      </cc:Work>
    </rdf:RDF>
  </metadata>
  <g
     inkscape:label="Layer 1"
     inkscape:groupmode="layer"
     id="layer1"
     transform="translate(-140.09375,-172.63364)">
    <path
       inkscape:connector-curvature="0"
       style="color:#000000;fill:#000000;fill-rule:evenodd"
       d="m 617.76339,218.32649 -79.46875,0.75 0,57.625 -58,-49.40625 -297.34375,256.3125 35.90625,41 57.65625,-42.28125 3.84375,374.24995 c 83.32283,0.2808 166.6458,0.5412 249.96875,0.7813 l 0,-158.34375 104.84375,0 8.53125,158.65625 c 18.15626,0.052 36.31249,0.1034 54.46875,0.1562 1.90684,-135.59956 5.125,-371.6562 5.125,-371.6562 l 43.5625,35.875 35.90625,-37.15625 -163.5625,-139.25 1.53125,-0.90625 c 0,0 -1.99484,-84.01274 -2.96875,-126.40625 z m -138.75,221.625 c 0.19995,24.85423 0.625,74.5625 0.625,74.5625 0,0 -46.95334,0.40773 -59.34375,0.5 l -4.46875,-73.1875 23.15625,-1.125 40.03125,-0.75 z m -71.03125,2.25 2.90625,72.75 -62.125,-0.46875 -1.78125,-69.3125 61,-2.96875 z m -58.90625,85.1875 62.3125,0.96875 2.78125,69.34375 -63.3125,0 -1.78125,-70.3125 z m 72.0625,1.125 58.625,2.21875 c 0,0 0.35105,44.64586 0.53125,66.96875 l -54.90625,0 -4.25,-69.1875 z"
       id="path3077" />
  </g>
</svg>
