<?xml version="1.0" standalone="no"?>
<!DOCTYPE svg PUBLIC "-//W3C//DTD SVG 20010904//EN"
 "http://www.w3.org/TR/2001/REC-SVG-20010904/DTD/svg10.dtd">
<svg version="1.0" xmlns="http://www.w3.org/2000/svg"
 width="100.000000pt" height="100.000000pt" viewBox="0 0 100.000000 100.000000"
 preserveAspectRatio="xMidYMid meet">

<g transform="translate(0.000000,100.000000) scale(0.100000,-0.100000)"
fill="#000000" stroke="none">
<path d="M311 926 c-26 -15 -50 -51 -51 -78 0 -11 -8 -18 -20 -18 -29 0 -70
-44 -70 -75 0 -36 43 -34 78 3 26 27 28 27 44 10 35 -35 101 -35 136 0 16 17
18 17 44 -10 35 -37 78 -39 78 -3 0 31 -41 75 -70 75 -11 0 -20 7 -20 15 0 69
-86 116 -149 81z"/>
<path d="M646 888 c-9 -29 -28 -100 -44 -158 l-29 -105 -46 -3 c-42 -3 -49 0
-81 35 -31 35 -39 38 -86 38 -47 0 -55 -3 -86 -37 -32 -36 -36 -37 -111 -40
-61 -2 -78 -6 -78 -18 0 -13 53 -15 414 -15 334 0 415 3 419 13 2 7 -5 16 -16
19 -15 3 -22 16 -27 46 -16 102 -94 215 -177 258 l-37 19 -15 -52z"/>
<path d="M130 530 c0 -6 9 -28 20 -49 28 -56 94 -108 159 -127 72 -21 90 -30
125 -60 l29 -26 -26 -26 c-23 -23 -29 -24 -52 -14 -69 32 -145 -15 -145 -89 0
-50 49 -99 100 -99 33 0 71 23 86 51 24 47 16 52 -30 18 -34 -24 -51 -30 -71
-25 -56 14 -56 98 0 112 36 9 42 -2 16 -30 -21 -22 -22 -46 -2 -46 5 0 43 27
85 61 l77 60 76 -60 c41 -34 79 -61 84 -61 20 0 19 24 -2 46 -26 28 -20 39 16
30 56 -14 56 -98 0 -112 -20 -5 -37 1 -71 25 -46 34 -54 29 -30 -18 46 -88
186 -50 186 50 0 32 -26 74 -55 87 -33 15 -57 15 -90 0 -23 -10 -29 -9 -52 15
-15 14 -25 28 -22 30 2 2 23 18 45 35 23 18 48 32 56 32 34 0 109 34 147 67
38 32 81 97 81 123 0 7 -121 10 -370 10 -249 0 -370 -3 -370 -10z m407 -210
c-14 -11 -30 -20 -37 -20 -7 0 -23 9 -37 20 l-26 20 63 0 63 0 -26 -20z"/>
</g>
</svg>
