<?xml version="1.0" standalone="no"?>
<!DOCTYPE svg PUBLIC "-//W3C//DTD SVG 20010904//EN"
 "http://www.w3.org/TR/2001/REC-SVG-20010904/DTD/svg10.dtd">
<svg version="1.0" xmlns="http://www.w3.org/2000/svg"
 width="100.000000pt" height="100.000000pt" viewBox="0 0 100.000000 100.000000"
 preserveAspectRatio="xMidYMid meet">

<g transform="translate(0.000000,100.000000) scale(0.100000,-0.100000)"
fill="#000000" stroke="none">
<path d="M432 980 c-97 -59 -93 -191 8 -243 88 -45 200 26 200 128 0 66 -72
135 -140 135 -19 0 -50 -9 -68 -20z"/>
<path d="M355 691 c-47 -20 -66 -58 -101 -193 -18 -73 -34 -143 -34 -154 0
-32 26 -49 58 -38 24 8 30 21 54 109 20 78 27 92 27 63 l1 -38 140 0 140 0 1
38 c0 29 6 16 28 -63 24 -87 31 -101 54 -109 31 -11 57 6 57 38 0 11 -16 82
-35 156 -29 111 -41 140 -65 165 l-30 30 -138 2 c-75 1 -146 -1 -157 -6z"/>
<path d="M360 350 l0 -70 140 0 140 0 0 70 0 70 -140 0 -140 0 0 -70z"/>
<path d="M360 146 c0 -121 9 -146 50 -146 41 0 50 25 50 146 l0 114 -50 0 -50
0 0 -114z"/>
<path d="M540 146 c0 -121 9 -146 50 -146 41 0 50 25 50 146 l0 114 -50 0 -50
0 0 -114z"/>
</g>
</svg>
