<?xml version="1.0" standalone="no"?>
<!DOCTYPE svg PUBLIC "-//W3C//DTD SVG 20010904//EN"
 "http://www.w3.org/TR/2001/REC-SVG-20010904/DTD/svg10.dtd">
<svg version="1.0" xmlns="http://www.w3.org/2000/svg"
 width="100.000000pt" height="100.000000pt" viewBox="0 0 100.000000 100.000000"
 preserveAspectRatio="xMidYMid meet">

<g transform="translate(0.000000,100.000000) scale(0.100000,-0.100000)"
fill="#000000" stroke="none">
<path d="M432 980 c-70 -43 -92 -128 -49 -191 57 -86 178 -88 233 -4 77 118
-64 268 -184 195z"/>
<path d="M311 885 c-33 -38 -57 -104 -48 -129 5 -12 20 -16 55 -16 27 0 51 3
55 6 3 3 -4 24 -15 45 -15 30 -19 52 -15 84 2 25 3 45 2 45 -2 0 -17 -16 -34
-35z"/>
<path d="M657 878 c4 -36 0 -57 -15 -87 -11 -21 -18 -42 -15 -45 4 -3 28 -6
55 -6 35 0 50 4 55 16 10 26 -16 94 -52 132 l-33 37 5 -47z"/>
<path d="M364 681 c-17 -10 -38 -34 -46 -52 -34 -75 -99 -271 -96 -291 4 -31
31 -44 60 -31 19 8 33 36 63 117 22 58 43 106 47 106 13 0 10 -14 -37 -136
-24 -64 -42 -121 -39 -126 7 -11 341 -10 349 1 3 5 -15 62 -40 126 -46 120
-50 135 -37 135 4 0 25 -48 47 -106 42 -113 67 -140 103 -117 29 18 25 50 -24
186 -54 150 -66 172 -105 193 -44 22 -205 19 -245 -5z"/>
<path d="M402 129 c3 -94 6 -114 21 -123 12 -8 22 -8 35 0 14 9 17 29 20 123
l3 111 -41 0 -41 0 3 -111z"/>
<path d="M502 129 c3 -94 6 -114 21 -123 12 -8 22 -8 35 0 14 9 17 29 20 123
l3 111 -41 0 -41 0 3 -111z"/>
</g>
</svg>
