<?xml version="1.0" standalone="no"?>
<!DOCTYPE svg PUBLIC "-//W3C//DTD SVG 20010904//EN"
 "http://www.w3.org/TR/2001/REC-SVG-20010904/DTD/svg10.dtd">
<svg version="1.0" xmlns="http://www.w3.org/2000/svg"
 width="100.000000pt" height="100.000000pt" viewBox="0 0 100.000000 100.000000"
 preserveAspectRatio="xMidYMid meet">

<g transform="translate(0.000000,100.000000) scale(0.100000,-0.100000)"
fill="#000000" stroke="none">
<path d="M449 945 c-14 -8 -32 -28 -39 -45 -8 -19 -20 -30 -32 -30 -27 0 -68
-45 -68 -75 0 -20 5 -25 25 -25 14 0 37 11 51 25 20 20 26 22 31 10 7 -19 55
-45 82 -45 34 0 72 23 87 51 47 92 -46 183 -137 134z"/>
<path d="M435 706 c-74 -34 -95 -83 -95 -221 0 -94 2 -105 20 -115 13 -7 20
-21 20 -40 0 -23 4 -30 20 -30 11 0 20 -1 21 -2 1 -2 6 -55 13 -118 l11 -115
55 0 55 0 11 115 c7 63 12 116 13 118 1 1 10 2 21 2 16 0 20 7 20 30 0 19 7
33 21 40 19 11 20 19 17 130 -3 128 -11 149 -70 193 -34 25 -113 32 -153 13z"/>
</g>
</svg>
