<?xml version="1.0" standalone="no"?>
<!DOCTYPE svg PUBLIC "-//W3C//DTD SVG 20010904//EN"
 "http://www.w3.org/TR/2001/REC-SVG-20010904/DTD/svg10.dtd">
<svg version="1.0" xmlns="http://www.w3.org/2000/svg"
 width="100.000000pt" height="100.000000pt" viewBox="0 0 100.000000 100.000000"
 preserveAspectRatio="xMidYMid meet">

<g transform="translate(0.000000,100.000000) scale(0.100000,-0.100000)"
fill="#000000" stroke="none">
<path d="M451 946 c-87 -48 -50 -186 49 -186 51 0 100 49 100 99 0 75 -83 124
-149 87z"/>
<path d="M425 701 c-22 -10 -48 -27 -57 -37 -15 -18 -48 -85 -48 -99 0 -3 18
-5 40 -5 l40 0 0 -150 0 -150 100 0 100 0 0 150 0 150 41 0 c37 0 40 2 33 23
-20 64 -49 97 -107 122 -48 20 -93 19 -142 -4z"/>
<path d="M322 438 c3 -70 6 -83 21 -86 15 -3 17 6 17 82 0 80 -1 86 -20 86
-20 0 -21 -5 -18 -82z"/>
<path d="M640 434 c0 -76 2 -85 18 -82 14 3 17 16 20 86 3 77 2 82 -18 82 -19
0 -20 -6 -20 -86z"/>
<path d="M400 140 l0 -80 100 0 100 0 0 80 0 80 -100 0 -100 0 0 -80z"/>
</g>
</svg>
