<?xml version="1.0" standalone="no"?>
<!DOCTYPE svg PUBLIC "-//W3C//DTD SVG 20010904//EN"
 "http://www.w3.org/TR/2001/REC-SVG-20010904/DTD/svg10.dtd">
<svg version="1.0" xmlns="http://www.w3.org/2000/svg"
 width="100.000000pt" height="100.000000pt" viewBox="0 0 100.000000 100.000000"
 preserveAspectRatio="xMidYMid meet">

<g transform="translate(0.000000,100.000000) scale(0.100000,-0.100000)"
fill="#000000" stroke="none">
<path d="M458 944 c-30 -16 -58 -61 -58 -94 0 -53 57 -110 110 -110 53 0 110
57 110 110 0 34 -28 78 -60 95 -36 19 -67 19 -102 -1z"/>
<path d="M354 701 c-48 -29 -55 -59 -52 -220 3 -124 5 -145 21 -155 12 -8 22
-8 35 0 14 9 17 29 20 123 1 63 7 111 12 111 6 0 10 -94 10 -244 0 -209 2
-247 16 -260 21 -21 47 -20 67 2 14 15 17 42 17 160 0 88 4 142 10 142 6 0 10
-54 10 -143 0 -127 2 -146 18 -160 23 -21 46 -22 66 -1 14 13 16 51 16 255 0
147 4 239 10 239 5 0 11 -47 12 -106 3 -89 6 -109 21 -118 12 -8 22 -8 35 0
15 10 17 31 20 158 4 221 -9 236 -210 236 -103 0 -128 -3 -154 -19z"/>
</g>
</svg>
