<?xml version="1.0" standalone="no"?>
<!DOCTYPE svg PUBLIC "-//W3C//DTD SVG 20010904//EN"
 "http://www.w3.org/TR/2001/REC-SVG-20010904/DTD/svg10.dtd">
<svg version="1.0" xmlns="http://www.w3.org/2000/svg"
 width="100.000000pt" height="100.000000pt" viewBox="0 0 100.000000 100.000000"
 preserveAspectRatio="xMidYMid meet">

<g transform="translate(0.000000,100.000000) scale(0.100000,-0.100000)"
fill="#000000" stroke="none">
<path d="M464 950 c-35 -14 -64 -59 -64 -101 0 -115 162 -148 207 -42 38 92
-51 180 -143 143z"/>
<path d="M445 708 c-37 -13 -82 -53 -102 -92 -24 -47 -65 -205 -58 -227 6 -17
42 -45 50 -37 1 2 17 50 34 108 17 57 36 109 41 114 18 18 11 -12 -31 -145
-22 -71 -37 -133 -34 -139 8 -13 322 -13 330 0 3 6 -12 69 -35 141 -23 72 -39
136 -37 142 6 18 21 -18 52 -125 16 -54 32 -98 36 -98 12 0 49 42 49 54 0 22
-48 184 -63 212 -43 83 -144 123 -232 92z"/>
<path d="M422 159 c3 -84 6 -104 20 -113 13 -8 23 -8 35 0 15 9 18 29 21 113
l3 101 -41 0 -41 0 3 -101z"/>
<path d="M522 159 c3 -84 6 -104 20 -113 13 -8 23 -8 35 0 15 9 18 29 21 113
l3 101 -41 0 -41 0 3 -101z"/>
</g>
</svg>
