<?xml version="1.0" standalone="no"?>
<!DOCTYPE svg PUBLIC "-//W3C//DTD SVG 20010904//EN"
 "http://www.w3.org/TR/2001/REC-SVG-20010904/DTD/svg10.dtd">
<svg version="1.0" xmlns="http://www.w3.org/2000/svg"
 width="100.000000pt" height="100.000000pt" viewBox="0 0 100.000000 100.000000"
 preserveAspectRatio="xMidYMid meet">

<g transform="translate(0.000000,100.000000) scale(0.100000,-0.100000)"
fill="#000000" stroke="none">
<path d="M451 946 c-87 -48 -50 -186 49 -186 51 0 100 49 100 99 0 75 -83 124
-149 87z"/>
<path d="M352 700 c-60 -37 -72 -70 -72 -203 l0 -118 29 -10 c28 -10 29 -12
35 -102 4 -51 9 -118 13 -150 l6 -57 57 0 57 0 6 53 c3 28 11 134 18 235 7
100 16 182 20 182 4 0 25 -32 48 -70 35 -59 41 -75 35 -105 -5 -30 -4 -35 14
-35 12 0 22 9 25 21 3 12 12 19 19 17 10 -4 14 -43 16 -161 2 -149 4 -157 22
-157 19 0 20 7 20 160 0 146 -2 162 -20 180 -11 11 -49 77 -84 147 -35 71 -75
138 -87 150 -50 46 -123 56 -177 23z"/>
</g>
</svg>
