<?xml version="1.0" standalone="no"?>
<!DOCTYPE svg PUBLIC "-//W3C//DTD SVG 20010904//EN"
 "http://www.w3.org/TR/2001/REC-SVG-20010904/DTD/svg10.dtd">
<svg version="1.0" xmlns="http://www.w3.org/2000/svg"
 width="100.000000pt" height="100.000000pt" viewBox="0 0 100.000000 100.000000"
 preserveAspectRatio="xMidYMid meet">

<g transform="translate(0.000000,100.000000) scale(0.100000,-0.100000)"
fill="#000000" stroke="none">
<path d="M449 945 c-14 -8 -32 -28 -39 -45 -8 -19 -20 -30 -32 -30 -27 0 -68
-45 -68 -75 0 -20 5 -25 25 -25 14 0 37 11 51 25 20 20 26 22 31 10 7 -19 55
-45 82 -45 34 0 72 23 87 51 47 92 -46 183 -137 134z"/>
<path d="M352 700 c-62 -38 -72 -68 -72 -223 0 -130 1 -139 20 -144 18 -5 20
-14 20 -79 0 -72 1 -74 25 -74 22 0 25 -5 31 -60 l7 -60 47 0 47 0 7 60 c6 55
9 60 31 60 l25 0 0 163 0 162 35 -55 c29 -46 34 -61 29 -92 -5 -33 -3 -38 14
-38 12 0 22 9 25 21 3 12 12 19 19 17 10 -4 14 -43 16 -161 2 -149 4 -157 22
-157 19 0 20 7 20 160 0 146 -2 162 -20 180 -11 11 -49 77 -84 147 -35 71 -75
138 -87 150 -50 46 -123 56 -177 23z"/>
</g>
</svg>
