<?xml version="1.0" standalone="no"?>
<!DOCTYPE svg PUBLIC "-//W3C//DTD SVG 20010904//EN"
 "http://www.w3.org/TR/2001/REC-SVG-20010904/DTD/svg10.dtd">
<svg version="1.0" xmlns="http://www.w3.org/2000/svg"
 width="100.000000pt" height="100.000000pt" viewBox="0 0 100.000000 100.000000"
 preserveAspectRatio="xMidYMid meet">

<g transform="translate(0.000000,100.000000) scale(0.100000,-0.100000)"
fill="#000000" stroke="none">
<path d="M255 818 c-132 -66 -242 -122 -245 -125 -3 -3 3 -10 13 -17 15 -12
17 -32 17 -155 0 -128 -2 -143 -20 -161 -11 -11 -20 -27 -20 -36 0 -19 50
-114 60 -114 10 0 60 95 60 114 0 9 -9 25 -20 36 -19 19 -20 31 -18 150 l3
130 208 -121 208 -120 244 142 c135 78 245 145 245 148 0 5 -485 252 -493 250
-1 0 -110 -54 -242 -121z m-181 -487 c7 -11 -3 -41 -14 -41 -11 0 -21 30 -14
41 3 5 9 9 14 9 5 0 11 -4 14 -9z"/>
<path d="M204 473 c-22 -53 -44 -159 -44 -219 l0 -51 69 -7 c94 -8 186 -38
232 -76 l39 -31 37 30 c48 38 142 69 234 77 l72 7 -7 82 c-6 83 -38 209 -56
220 -5 3 -68 -28 -139 -69 -71 -42 -135 -76 -141 -76 -6 0 -69 34 -140 75 -71
41 -131 75 -135 75 -3 0 -13 -17 -21 -37z"/>
</g>
</svg>
