<?xml version="1.0" standalone="no"?>
<!DOCTYPE svg PUBLIC "-//W3C//DTD SVG 20010904//EN"
 "http://www.w3.org/TR/2001/REC-SVG-20010904/DTD/svg10.dtd">
<svg version="1.0" xmlns="http://www.w3.org/2000/svg"
 width="64.000000pt" height="64.000000pt" viewBox="0 0 64.000000 64.000000"
 preserveAspectRatio="xMidYMid meet">

<g transform="translate(0.000000,64.000000) scale(0.100000,-0.100000)"
fill="#000000" stroke="none">
<path d="M218 458 c-20 -16 -27 -49 -12 -55 6 -2 14 5 17 17 4 16 13 20 47 20
34 0 43 -4 47 -20 7 -26 29 -20 25 6 -5 28 -31 44 -72 44 -20 0 -43 -6 -52
-12z"/>
<path d="M85 391 c-6 -5 -23 -11 -40 -13 l-30 -3 -3 -174 c-1 -96 1 -178 6
-183 4 -4 114 -8 243 -9 316 0 309 0 309 11 0 6 -9 10 -20 10 -19 0 -20 8 -22
172 l-3 173 -30 3 c-16 2 -35 8 -42 13 -7 7 -14 6 -18 -1 -8 -13 -317 -14
-331 0 -6 6 -14 6 -19 1z m155 -97 c15 -40 12 -51 -17 -62 -16 -5 -36 -13 -46
-17 -13 -6 -21 1 -33 30 -18 43 -19 39 26 58 49 22 59 20 70 -9z m107 -95 c32
-12 62 -25 66 -29 8 -7 -26 -100 -35 -100 -2 0 -32 11 -68 24 -70 26 -75 36
-51 99 13 33 15 33 88 6z"/>
<path d="M610 20 c0 -5 5 -10 10 -10 6 0 10 5 10 10 0 6 -4 10 -10 10 -5 0
-10 -4 -10 -10z"/>
</g>
</svg>
