<?xml version="1.0" standalone="no"?>
<!DOCTYPE svg PUBLIC "-//W3C//DTD SVG 20010904//EN"
 "http://www.w3.org/TR/2001/REC-SVG-20010904/DTD/svg10.dtd">
<svg version="1.0" xmlns="http://www.w3.org/2000/svg"
 width="128.000000pt" height="128.000000pt" viewBox="0 0 128.000000 128.000000"
 preserveAspectRatio="xMidYMid meet">

<g transform="translate(0.000000,128.000000) scale(0.100000,-0.100000)"
fill="#000000" stroke="none">
<path d="M488 1188 c-8 -7 -30 -34 -47 -60 l-32 -48 -184 0 c-243 0 -225 18
-225 -222 0 -161 3 -188 20 -227 18 -38 20 -65 20 -233 0 -187 0 -189 25 -213
l24 -25 551 0 551 0 24 25 c25 24 25 26 25 213 0 168 2 195 20 233 17 39 20
66 20 227 0 240 18 222 -225 222 l-184 0 -32 48 c-49 73 -47 72 -199 72 -94 0
-141 -4 -152 -12z m307 -65 l25 -38 -90 -3 c-49 -1 -131 -1 -180 0 l-90 3 25
38 26 37 129 0 129 0 26 -37z m442 -99 c3 -8 1 -20 -6 -27 -14 -14 -14 -60 0
-74 7 -7 10 -55 7 -136 -3 -108 -6 -129 -24 -153 -31 -43 -67 -65 -112 -71
l-42 -6 0 40 c0 52 -14 63 -80 63 -66 0 -80 -11 -80 -62 l0 -38 -260 0 -260 0
0 38 c0 51 -14 62 -80 62 -66 0 -80 -11 -80 -63 l0 -40 -42 6 c-45 6 -81 28
-112 71 -18 24 -21 45 -24 153 -3 81 0 129 7 136 14 14 14 60 0 74 -7 7 -9 19
-6 27 6 14 70 16 597 16 527 0 591 -2 597 -16z m-897 -474 l0 -70 -40 0 -40 0
0 70 0 70 40 0 40 0 0 -70z m680 0 l0 -70 -40 0 -40 0 0 70 0 70 40 0 40 0 0
-70z m-897 -15 c20 -8 50 -15 67 -15 26 0 30 -3 30 -28 0 -41 17 -52 80 -52
63 0 80 11 80 52 l0 28 260 0 260 0 0 -28 c0 -41 17 -52 80 -52 63 0 80 11 80
52 0 25 4 28 30 28 17 0 47 7 67 15 19 8 37 15 39 15 2 0 4 -73 4 -163 0 -113
-4 -167 -12 -175 -17 -17 -1079 -17 -1096 0 -8 8 -12 62 -12 175 0 90 2 163 4
163 2 0 20 -7 39 -15z"/>
<path d="M124 987 c-9 -25 0 -62 16 -62 10 0 15 10 15 34 0 36 -21 54 -31 28z"/>
<path d="M224 987 c-9 -25 0 -62 16 -62 10 0 15 10 15 34 0 36 -21 54 -31 28z"/>
<path d="M324 987 c-9 -25 0 -62 16 -62 10 0 15 10 15 34 0 36 -21 54 -31 28z"/>
<path d="M424 987 c-9 -25 0 -62 16 -62 10 0 15 10 15 34 0 36 -21 54 -31 28z"/>
<path d="M524 987 c-9 -25 0 -62 16 -62 10 0 15 10 15 34 0 36 -21 54 -31 28z"/>
<path d="M624 987 c-9 -25 0 -62 16 -62 10 0 15 10 15 34 0 36 -21 54 -31 28z"/>
<path d="M724 987 c-9 -25 0 -62 16 -62 10 0 15 10 15 34 0 36 -21 54 -31 28z"/>
<path d="M824 987 c-9 -25 0 -62 16 -62 10 0 15 10 15 34 0 36 -21 54 -31 28z"/>
<path d="M924 987 c-9 -25 0 -62 16 -62 10 0 15 10 15 34 0 36 -21 54 -31 28z"/>
<path d="M1024 987 c-9 -25 0 -62 16 -62 10 0 15 10 15 34 0 36 -21 54 -31 28z"/>
<path d="M1124 987 c-9 -25 0 -62 16 -62 10 0 15 10 15 34 0 36 -21 54 -31 28z"/>
<path d="M205 309 c-4 -6 -3 -15 2 -20 5 -5 185 -8 439 -7 373 3 429 5 429 18
0 13 -56 15 -432 18 -305 1 -434 -1 -438 -9z"/>
</g>
</svg>
